<svg width="60" height="52" viewBox="0 0 60 52" fill="none" xmlns="http://www.w3.org/2000/svg">
<path fill-rule="evenodd" clip-rule="evenodd" d="M21.464 15.4073L28 7.48721V36.0032C28 37.1112 28.894 38.0072 30 38.0072C31.106 38.0072 32 37.1112 32 36.0032V7.41128L38.598 15.4073C39.38 16.1973 40.652 16.1973 41.438 15.4073C42.22 14.6213 42.22 13.3432 41.438 12.5552L31.552 0.573271C31.132 0.153271 30.578 -0.0267976 30.032 0.00320245C29.484 -0.0267976 28.93 0.153271 28.512 0.573271L18.626 12.5552C17.842 13.3432 17.842 14.6213 18.626 15.4073C19.41 16.1973 20.682 16.1973 21.464 15.4073ZM58 32.0072C56.894 32.0072 56 32.9032 56 34.0072V48.0072H4V34.0072C4 32.9032 3.106 32.0072 2 32.0072C0.894 32.0072 0 32.9032 0 34.0072V50.0072C0 51.1132 0.894 52.0072 2 52.0072H58C59.106 52.0072 60 51.1132 60 50.0072V34.0072C60 32.9032 59.106 32.0072 58 32.0072Z" fill="white"/>
</svg>
